<?xml version="1.0"?>
<svg xmlns="http://www.w3.org/2000/svg" height="512px" viewBox="0 0 64 64" width="512px" class=""><g><path d="m61.756 49.35-7.322-7.322a7.019 7.019 0 0 1 -2.007-4.176l-.794-7.15a9.04 9.04 0 0 0 -2.582-5.37l-.137-.137 1.077-1.078a10.987 10.987 0 0 0 11.28-14.957 1 1 0 0 0 -1.637-.342l-7.534 7.538-3.713-.53-.53-3.713 7.538-7.537a1 1 0 0 0 -.342-1.638 10.987 10.987 0 0 0 -14.957 11.28l-3.907 3.906-2.832-2.824a4 4 0 0 0 -6.757 2.082 4.105 4.105 0 0 0 -4.558.742 3.992 3.992 0 0 0 -.742 4.592 3.9 3.9 0 0 0 -2.086 1.065 3.952 3.952 0 0 0 -.763 4.56 4 4 0 0 0 -2.065 6.753l1.414 1.415-3.49 3.491a10.877 10.877 0 0 0 -8.822 3.166 10.992 10.992 0 0 0 -2.458 11.792 1 1 0 0 0 1.638.341l7.537-7.537 3.713.53.53 3.708-7.538 7.542a1 1 0 0 0 .342 1.638 10.994 10.994 0 0 0 11.792-2.458 10.879 10.879 0 0 0 3.165-8.822l3.491-3.492 15.258 15.257a1 1 0 0 0 1.414-1.414l-15.257-15.257 13.435-13.436a1 1 0 0 1 0 1.415l-1.415 1.414a7.009 7.009 0 0 0 0 9.9 1 1 0 1 0 1.414-1.414 5.006 5.006 0 0 1 0-7.071l1.416-1.415a3.006 3.006 0 0 0 0-4.243l-.707-.706a1.982 1.982 0 0 0 -1.413-.586 1.986 1.986 0 0 0 -1.414.586 3.074 3.074 0 0 1 -4.242 0l-1.415-1.415 4.95-4.949a3 3 0 0 1 4.243 0l3.672 3.672a7.029 7.029 0 0 1 2.008 4.177l.793 7.15a9.035 9.035 0 0 0 2.582 5.369l7.322 7.322a1 1 0 0 0 1.414-1.414zm-38.3-29.812a2.055 2.055 0 0 1 2.829 0l7.07 7.07a2 2 0 0 0 0 2.829 2.055 2.055 0 0 1 -2.829 0l-7.071-7.071a2 2 0 0 1 .003-2.828zm-2.826 5.662a2 2 0 0 1 2.828 0l7.071 7.071a2 2 0 0 1 0 2.829 2.049 2.049 0 0 1 -2.828 0l-5.657-5.657-1.414-1.42a2 2 0 0 1 0-2.828zm-3.414 7.071a1.985 1.985 0 0 1 .586-1.414 2.049 2.049 0 0 1 2.828 0l5.657 5.657 1.413 1.409a2 2 0 1 1 -2.829 2.828l-7.071-7.071a1.986 1.986 0 0 1 -.584-1.414zm5.235 16.559a1 1 0 0 0 -.283.849 8.9 8.9 0 0 1 -2.538 7.629 9 9 0 0 1 -8.117 2.46l6.7-6.7a1 1 0 0 0 .283-.849l-.707-4.949a1 1 0 0 0 -.849-.849l-4.95-.707a1 1 0 0 0 -.848.283l-6.7 6.7a8.987 8.987 0 0 1 10.089-10.656 1 1 0 0 0 .849-.283l3.836-3.835 4.242 4.243a4.005 4.005 0 0 0 5.656 0zm12.322-17.978a4.966 4.966 0 0 0 3.535 1.464 5.042 5.042 0 0 0 .728-.071l-9.92 9.92a3.952 3.952 0 0 0 .762-4.559 3.97 3.97 0 0 0 2.827-5.659 3.97 3.97 0 0 0 2.068-1.095zm0-5.657-5.657-5.657a2 2 0 0 1 0-2.829 2.055 2.055 0 0 1 2.828 0l5.656 5.658zm4.314-4.171-1.487-1.486 4.251-4.25a1 1 0 0 0 .283-.849 8.9 8.9 0 0 1 2.538-7.629 9 9 0 0 1 8.117-2.46l-6.7 6.7a1 1 0 0 0 -.283.848l.707 4.95a1 1 0 0 0 .848.848l4.951.707a.988.988 0 0 0 .848-.282l6.7-6.7a8.986 8.986 0 0 1 -10.089 10.656 1 1 0 0 0 -.85.282l-1.421 1.422-2.121-2.121a5.006 5.006 0 0 0 -6.293-.636z" data-original="#000000" class="active-path" data-old_color="#000000" fill="#FFFFFF"/></g> </svg>
